<svg width="1350" height="1080" viewBox="0 0 1350 1080" fill="none" xmlns="http://www.w3.org/2000/svg">
<g clip-path="url(#clip0_935_55450)">
<path d="M548.01 327.1L576.79 288.38L616.61 272.08C616.61 272.08 640.11 303.31 609.52 332.02C575.3 357.49 548.01 327.1 548.01 327.1Z" fill="white"/>
<path d="M1119.95 205.44H862.51C849.625 205.44 839.18 215.885 839.18 228.77V452.11C839.18 464.995 849.625 475.44 862.51 475.44H1119.95C1132.83 475.44 1143.28 464.995 1143.28 452.11V228.77C1143.28 215.885 1132.83 205.44 1119.95 205.44Z" fill="#57D5D4"/>
<path d="M1119.95 476.44H862.51C849.1 476.44 838.18 465.53 838.18 452.11V228.76C838.18 215.35 849.09 204.43 862.51 204.43H1119.95C1133.36 204.43 1144.28 215.34 1144.28 228.76V452.11C1144.28 465.52 1133.37 476.44 1119.95 476.44ZM862.51 206.44C850.2 206.44 840.18 216.46 840.18 228.77V452.12C840.18 464.43 850.2 474.45 862.51 474.45H1119.95C1132.26 474.45 1142.28 464.43 1142.28 452.12V228.77C1142.28 216.46 1132.26 206.44 1119.95 206.44H862.51Z" fill="black"/>
<path d="M616.609 272.08L576.789 288.38L548.01 327.1C541.33 319.38 537.27 309.31 537.27 298.29C537.27 286.41 541.98 275.63 549.63 267.72C557.63 259.44 568.85 254.29 581.27 254.29C595.75 254.29 608.589 261.28 616.609 272.08Z" fill="black"/>
<path d="M548.06 328.7L547.24 327.76C540.16 319.57 536.26 309.11 536.26 298.3C536.26 286.57 540.75 275.46 548.9 267.03C557.46 258.17 568.95 253.3 581.26 253.3C595.64 253.3 608.82 259.93 617.4 271.49L618.17 272.52L577.42 289.2L548.06 328.7ZM581.26 255.29C569.5 255.29 558.52 259.95 550.34 268.41C542.55 276.46 538.26 287.07 538.26 298.29C538.26 308.21 541.69 317.82 547.95 325.49L576.14 287.56L615.01 271.65C606.8 261.24 594.57 255.29 581.26 255.29Z" fill="black"/>
<path d="M581.27 343.29C568.21 343.29 555.81 337.63 547.25 327.75L546.72 327.14L576.15 287.55L616.95 270.85L617.41 271.47C623.2 279.27 626.27 288.54 626.27 298.28C626.27 323.09 606.08 343.28 581.27 343.28V343.29ZM549.3 327.05C557.46 336.11 569.06 341.29 581.27 341.29C604.98 341.29 624.27 322 624.27 298.29C624.27 289.24 621.5 280.62 616.26 273.3L577.42 289.2L549.29 327.05H549.3Z" fill="black"/>
<path d="M549.63 231.99V267.72H513.9C494.17 267.72 478.17 251.72 478.17 231.99C478.17 222.12 482.17 213.19 488.64 206.72C495.11 200.25 504.04 196.26 513.9 196.26C523.76 196.26 532.7 200.26 539.17 206.72C545.63 213.19 549.63 222.12 549.63 231.99Z" fill="black"/>
<path d="M550.63 268.72H513.9C493.65 268.72 477.17 252.24 477.17 231.99C477.17 222.18 480.99 212.95 487.93 206.01C494.86 199.08 504.09 195.26 513.9 195.26C523.71 195.26 532.93 199.08 539.88 206.01C546.81 212.96 550.63 222.18 550.63 231.99V268.72ZM513.9 197.26C504.62 197.26 495.9 200.87 489.35 207.43C482.79 213.99 479.17 222.72 479.17 231.99C479.17 251.14 494.75 266.72 513.9 266.72H548.63V231.99C548.63 222.72 545.02 213.99 538.46 207.43C531.89 200.87 523.17 197.26 513.9 197.26Z" fill="black"/>
<path d="M243.61 880.44H582.43L547.67 721.74L543.78 703.48H318.05C300.3 703.48 284.17 697.37 271.47 687.26L243.61 880.44Z" fill="#CD5F7D"/>
<path d="M583.68 881.44H242.46L270.74 685.39L272.1 686.48C285.25 696.95 301.14 702.48 318.06 702.48H544.6L548.66 721.53L583.68 881.44ZM244.77 879.44H581.19L546.7 721.95L542.98 704.48H318.06C301.27 704.48 285.46 699.17 272.22 689.11L244.77 879.44Z" fill="black"/>
<path d="M1089.96 269.27H953.17C946.416 269.27 940.94 274.746 940.94 281.5V328.26C940.94 335.014 946.416 340.49 953.17 340.49H1089.96C1096.71 340.49 1102.19 335.014 1102.19 328.26V281.5C1102.19 274.746 1096.71 269.27 1089.96 269.27Z" fill="white"/>
<path d="M1089.96 341.49H953.16C945.87 341.49 939.93 335.56 939.93 328.26V281.5C939.93 274.21 945.86 268.27 953.16 268.27H1089.96C1097.25 268.27 1103.19 274.2 1103.19 281.5V328.26C1103.19 335.55 1097.26 341.49 1089.96 341.49ZM953.16 270.27C946.97 270.27 941.93 275.31 941.93 281.5V328.26C941.93 334.45 946.97 339.49 953.16 339.49H1089.96C1096.15 339.49 1101.19 334.45 1101.19 328.26V281.5C1101.19 275.31 1096.15 270.27 1089.96 270.27H953.16Z" fill="black"/>
<path d="M952.49 329.54C951.94 329.54 951.49 329.09 951.49 328.54V281.22C951.49 280.67 951.94 280.22 952.49 280.22C953.04 280.22 953.49 280.67 953.49 281.22V328.54C953.49 329.09 953.04 329.54 952.49 329.54Z" fill="black"/>
<path d="M934.61 332.78C939.49 334.64 942.45 339.61 941.75 344.79L935.94 388.11L933.56 442.53L919.33 472.15H919.32L865.84 444.44L877.48 425.42V341.92C877.48 337.2 879 332.6 881.81 328.8L918.11 279.85C921.33 275.51 927.35 274.38 931.92 277.26C935.04 279.22 936.75 282.58 936.75 286.01C936.75 287.84 936.26 289.7 935.24 291.38L911.96 329.67L927.7 306.58C930.42 302.59 935.86 301.56 939.85 304.28C942.31 305.95 943.67 308.69 943.67 311.5C943.67 312.76 943.4 314.02 942.84 315.22L934.61 332.78Z" fill="white"/>
<path d="M919.33 472.15L912.95 485.41L857.33 458.35L865.84 444.44L919.32 472.15H919.33Z" fill="white"/>
<path d="M484.91 615.76L484.83 616.25L471 703.48H318.06C271.67 703.48 236.41 661.76 244.14 616.02L264.12 493.71C279.14 401.76 367.49 340.66 458.82 359.05L633.25 394.17C661.44 399.85 683.82 421.28 690.72 449.2L736.35 633.84C737.8 639.71 745.6 640.91 748.75 635.76L857.32 458.35H857.33L912.95 485.41L775.23 772.04C744.62 823.62 667.06 813.08 651.33 755.2L637.21 703.22L628.33 670.54C628.78 668.92 628.86 667.17 628.48 665.42L618.42 618.66C617.61 614.9 615.15 611.92 611.97 610.33L589.49 527.6L556.75 609.37C552.72 610.37 549.71 613.28 548.41 616.89L543.42 625.58L502.41 618.69L484.92 615.76H484.91Z" fill="white"/>
<path d="M543.41 625.58L548.4 616.89C547.94 618.17 547.69 619.53 547.69 620.93C547.69 622.09 547.86 623.28 548.22 624.45L561.44 667.11C562.88 671.91 567.84 674.73 572.71 673.52C577.56 672.31 580.62 667.52 579.67 662.61L574.05 633.14L575.2 632.92C575.27 633.21 575.35 633.51 575.44 633.81L589.5 679.8C591.13 685.15 596.66 688.29 602.09 686.94C607.53 685.6 610.94 680.24 609.91 674.78C612.47 677.7 616.53 679.11 620.55 678.11C624.45 677.15 627.32 674.17 628.32 670.54L637.2 703.22L636.26 703.48H537.96C535.46 703.48 533.09 703.09 530.9 702.39C517.77 698.16 510.79 682.47 518.18 669.48L543.41 625.58Z" fill="white"/>
<path d="M628.47 665.42C628.85 667.17 628.77 668.92 628.32 670.54L611.96 610.33C615.14 611.92 617.6 614.9 618.41 618.66L628.47 665.42Z" fill="white"/>
<path d="M611.96 610.33L628.32 670.54C627.32 674.17 624.45 677.15 620.55 678.11C616.53 679.11 612.47 677.7 609.91 674.78C609.89 674.63 609.85 674.49 609.82 674.34L598.93 627.49C598.24 624.54 596.54 622.1 594.28 620.44C594.61 615.28 598.23 610.69 603.54 609.38C606.49 608.65 609.45 609.06 611.96 610.33Z" fill="white"/>
<path d="M609.91 674.78C610.94 680.24 607.53 685.6 602.09 686.94C596.66 688.29 591.13 685.15 589.5 679.8L575.44 633.81C575.35 633.51 575.27 633.21 575.2 632.92C575 632.02 574.9 631.13 574.9 630.24C574.9 624.8 578.58 619.81 584.15 618.44C587.8 617.54 591.47 618.38 594.28 620.44C594.26 620.7 594.25 620.96 594.25 621.23C594.25 622.32 594.4 623.43 594.71 624.53L607.62 670.58C608.07 672.19 608.86 673.6 609.91 674.78Z" fill="white"/>
<path d="M609.82 674.34C609.85 674.49 609.89 674.63 609.91 674.78C608.86 673.6 608.07 672.19 607.62 670.58L594.71 624.53C594.4 623.43 594.25 622.32 594.25 621.23C594.25 620.96 594.26 620.7 594.28 620.44C596.54 622.1 598.24 624.54 598.93 627.49L609.82 674.34Z" fill="white"/>
<path d="M579.67 662.61C580.62 667.52 577.56 672.31 572.71 673.52C567.84 674.73 562.88 671.91 561.44 667.11L548.22 624.45C547.86 623.28 547.69 622.09 547.69 620.93C547.69 619.53 547.94 618.17 548.4 616.89C549.7 613.28 552.71 610.37 556.74 609.37C563.37 607.73 570.02 611.99 571.29 618.7L574.05 633.14L579.67 662.61Z" fill="white"/>
<path d="M502.4 618.69L543.41 625.58L518.18 669.48C510.79 682.47 517.77 698.16 530.9 702.39L530.52 703.48H487.54L502.4 618.69Z" fill="white"/>
<path d="M502.4 618.69L487.54 703.48H471L484.83 616.25L484.91 615.76L502.4 618.69Z" fill="white"/>
<path d="M858.18 458.87L856.47 457.83L876.47 425.14V341.92C876.47 337.02 878.08 332.15 881 328.21L917.3 279.26C920.81 274.53 927.46 273.28 932.45 276.42C935.77 278.5 937.75 282.09 937.75 286.02C937.75 288.09 937.18 290.13 936.09 291.91L908.79 336.8L907.08 335.76L934.38 290.87C935.27 289.4 935.74 287.72 935.74 286.02C935.74 282.79 934.11 279.83 931.38 278.12C927.28 275.54 921.8 276.56 918.91 280.46L882.61 329.41C879.94 333.01 878.48 337.46 878.48 341.93V425.71L858.18 458.88V458.87Z" fill="black"/>
<path d="M530.52 704.48H318.06C295.65 704.48 274.51 694.66 260.04 677.55C245.57 660.43 239.42 637.95 243.15 615.86L263.13 493.56C270.44 448.82 295 409.98 332.28 384.19C369.56 358.4 414.57 349.13 459.01 358.08L633.44 393.2C661.86 398.93 684.73 420.82 691.68 448.97L737.31 633.61C737.88 635.93 739.7 637.59 742.05 637.95C744.4 638.31 746.64 637.28 747.88 635.24L856.45 457.83L858.16 458.87L749.59 636.28C747.92 639.01 744.91 640.41 741.75 639.92C738.58 639.43 736.14 637.19 735.37 634.08L689.74 449.44C682.97 422.04 660.71 400.73 633.04 395.15L458.61 360.03C414.71 351.19 370.24 360.35 333.41 385.83C296.58 411.3 272.32 449.68 265.1 493.87L245.12 616.18C241.48 637.7 247.48 659.59 261.56 676.26C275.64 692.93 296.24 702.48 318.05 702.48H530.51V704.48H530.52Z" fill="black"/>
<path d="M544.16 626.72L543.24 626.57L346.34 593.51L382.89 449.89L384.82 450.38L348.81 591.9L544.49 624.75L544.16 626.72Z" fill="black"/>
<path d="M717.28 806.32C714.07 806.32 710.83 806.1 707.56 805.66C679.66 801.87 657.75 782.63 650.36 755.46L627.35 670.8L629.28 670.28L652.29 754.94C659.46 781.32 680.74 800 707.83 803.68C734.92 807.37 760.41 795.04 774.37 771.53L912.05 484.98L932.57 442.28L934.94 388.07L940.76 344.66C941.4 339.92 938.73 335.42 934.25 333.72L934.02 333.63C932.9 333.23 931.74 333.02 930.57 333.02C926.19 333.02 922.28 335.81 920.86 339.96L904.56 387.56L902.67 386.91L918.97 339.31C920.67 334.35 925.34 331.01 930.58 331.01C932.05 331.01 933.51 331.28 934.92 331.81L935.14 331.9C940.37 333.99 943.49 339.31 942.73 344.91L936.92 388.23L934.54 442.77L913.84 485.83L776.12 772.46C763.4 793.91 741.44 806.31 717.27 806.31L717.28 806.32Z" fill="black"/>
<path d="M590.437 527.361L588.507 527.885L610.985 610.616L612.915 610.092L590.437 527.361Z" fill="black"/>
<path d="M866.296 443.546L865.376 445.322L918.854 473.03L919.774 471.255L866.296 443.546Z" fill="black"/>
<path d="M912.51 486.31L856.89 459.25L857.32 458.36V457.35H857.56L913.38 484.51L912.51 486.31Z" fill="black"/>
<path d="M488.52 703.66L486.55 703.31L501.52 617.9L503.49 618.26L503.38 618.87L488.52 703.66Z" fill="black"/>
<path d="M483.862 616.133L470.015 703.361L471.99 703.675L485.837 616.447L483.862 616.133Z" fill="black"/>
<path d="M597.794 503.971L555.789 608.938L557.645 609.681L599.651 504.714L597.794 503.971Z" fill="black"/>
<path d="M570.42 674.8C565.93 674.8 561.82 671.88 560.48 667.4L547.26 624.75C546.88 623.51 546.69 622.23 546.69 620.93C546.69 619.44 546.95 617.97 547.46 616.55C548.92 612.49 552.3 609.44 556.5 608.4C559.98 607.54 563.56 608.13 566.57 610.07C569.58 612 571.61 615 572.27 618.52L580.65 662.43C581.7 667.86 578.32 673.16 572.95 674.5C572.1 674.71 571.26 674.81 570.42 674.81V674.8ZM549.34 617.23C548.91 618.43 548.69 619.68 548.69 620.93C548.69 622.02 548.85 623.11 549.18 624.16L562.4 666.82C563.69 671.12 568.11 673.64 572.47 672.56C576.81 671.48 579.54 667.2 578.69 662.81L570.31 618.9C569.75 615.93 568.04 613.39 565.49 611.76C562.94 610.12 559.92 609.62 556.98 610.35C553.43 611.23 550.58 613.81 549.34 617.24V617.23Z" fill="black"/>
<path d="M599.54 688.26C594.59 688.26 590.04 685.04 588.54 680.1L574.48 634.11C574.38 633.79 574.3 633.47 574.22 633.16C574 632.18 573.89 631.2 573.89 630.24C573.89 624.17 578.01 618.92 583.9 617.47C587.71 616.53 591.7 617.32 594.86 619.63L593.68 621.24C591 619.28 587.61 618.61 584.38 619.4C579.38 620.63 575.89 625.08 575.89 630.23C575.89 631.04 575.98 631.87 576.17 632.69C576.23 632.94 576.31 633.23 576.39 633.51L590.45 679.5C591.93 684.35 596.93 687.19 601.84 685.96C606.75 684.75 609.85 679.92 608.92 674.96L610.89 674.59C612.02 680.59 608.26 686.44 602.33 687.91C601.4 688.14 600.47 688.25 599.55 688.25L599.54 688.26Z" fill="black"/>
<path d="M617.94 679.18C614.69 679.18 611.56 677.79 609.35 675.28C608.19 673.98 607.37 672.47 606.9 670.78L593.99 624.73C593.67 623.58 593.5 622.4 593.5 621.23C593.5 620.94 593.51 620.66 593.53 620.38C593.89 614.73 597.84 610.01 603.36 608.65C606.37 607.91 609.54 608.26 612.3 609.66C615.82 611.42 618.31 614.64 619.14 618.5L629.2 665.26C629.59 667.06 629.54 668.95 629.04 670.74C627.94 674.74 624.75 677.85 620.73 678.84C619.8 679.07 618.87 679.18 617.94 679.18ZM606.47 609.77C605.55 609.77 604.63 609.88 603.72 610.11C598.84 611.31 595.35 615.49 595.03 620.49C595.01 620.74 595 620.98 595 621.23C595 622.27 595.15 623.31 595.43 624.33L608.34 670.38C608.75 671.84 609.46 673.16 610.47 674.28C612.94 677.1 616.73 678.28 620.37 677.38C623.87 676.52 626.64 673.82 627.6 670.34C628.03 668.79 628.08 667.14 627.74 665.58L617.68 618.82C616.95 615.41 614.74 612.56 611.63 611C610.02 610.19 608.26 609.77 606.48 609.77H606.47Z" fill="black"/>
<path d="M636.26 704.48H537.96C535.43 704.48 532.96 704.1 530.6 703.34C523.82 701.15 518.42 696.03 515.8 689.28C513.21 682.63 513.77 675.23 517.32 668.99L547.54 616.4L549.27 617.4L519.05 669.99C515.8 675.7 515.29 682.48 517.66 688.56C520.07 694.75 525.01 699.45 531.21 701.45C533.37 702.14 535.64 702.49 537.96 702.49H636.26V704.49V704.48Z" fill="black"/>
<path d="M935.18 333.91L933.37 333.06L941.93 314.8C942.42 313.76 942.67 312.65 942.67 311.5C942.67 308.93 941.41 306.54 939.29 305.11C937.58 303.94 935.52 303.51 933.49 303.9C931.46 304.28 929.7 305.44 928.53 307.15L911.44 332.21L909.79 331.08L911.14 329.11L926.88 306.02C928.35 303.87 930.56 302.42 933.12 301.93C935.68 301.45 938.27 301.99 940.42 303.45C943.08 305.26 944.68 308.27 944.68 311.5C944.68 312.94 944.37 314.33 943.76 315.64L935.2 333.9L935.18 333.91Z" fill="black"/>
<path d="M1002.26 695.4H1067.43C1110.86 695.4 1146.07 730.61 1146.07 774.04V775.41C1146.07 818.84 1110.86 854.05 1067.43 854.05H997.35C966.67 854.05 940.1 836.48 927.14 810.86H960.09C971.17 810.86 980.17 801.87 980.17 790.78C980.17 785.24 977.92 780.21 974.29 776.58C970.66 772.95 965.64 770.7 960.09 770.7H922.5C921.22 770.7 919.98 770.82 918.77 771.05C919.31 756.59 923.75 743.12 931.08 731.68C938.16 720.62 947.94 711.45 959.48 705.09C965.59 701.73 972.19 699.15 979.15 697.5" fill="#FF8D8D"/>
<path d="M1067.43 855.06H997.35C967.14 855.06 939.89 838.3 926.24 811.32L925.51 809.87H960.09C970.61 809.87 979.17 801.31 979.17 790.79C979.17 785.69 977.19 780.9 973.58 777.3C969.98 773.7 965.19 771.71 960.09 771.71H922.5C921.3 771.71 920.11 771.82 918.96 772.04L917.73 772.27L917.78 771.02C918.3 756.85 922.62 743.07 930.25 731.15C937.42 719.95 947.36 710.64 959.01 704.23C965.28 700.77 971.98 698.19 978.94 696.55L979.4 698.5C972.62 700.1 966.09 702.62 959.98 705.99C948.63 712.24 938.93 721.32 931.94 732.24C924.72 743.52 920.55 756.51 919.84 769.89C920.72 769.78 921.61 769.72 922.51 769.72H960.1C965.73 769.72 971.02 771.91 975 775.89C978.98 779.87 981.17 785.16 981.17 790.79C981.17 802.41 971.71 811.87 960.09 811.87H928.79C942.33 837.32 968.45 853.06 997.36 853.06H1067.44C1110.25 853.06 1145.08 818.23 1145.08 775.42V774.05C1145.08 731.24 1110.25 696.41 1067.44 696.41H1002.27V694.41H1067.44C1111.35 694.41 1147.08 730.14 1147.08 774.05V775.42C1147.08 819.33 1111.35 855.06 1067.44 855.06H1067.43Z" fill="black"/>
<path d="M1014.92 720.99L995.81 682.37C993.93 678.58 988.52 678.58 986.65 682.37L967.54 720.99" fill="#FF8D8D"/>
<path d="M1014.92 721.99C1014.55 721.99 1014.2 721.79 1014.02 721.43L994.91 682.81C994.2 681.38 992.82 680.52 991.23 680.52C989.64 680.52 988.25 681.38 987.55 682.81L968.44 721.43C968.2 721.93 967.6 722.13 967.1 721.88C966.61 721.63 966.4 721.04 966.65 720.54L985.76 681.92C986.8 679.82 988.9 678.52 991.24 678.52C993.58 678.52 995.68 679.82 996.72 681.92L1015.83 720.54C1016.07 721.04 1015.87 721.63 1015.38 721.88C1015.24 721.95 1015.09 721.98 1014.94 721.98L1014.92 721.99Z" fill="black"/>
<path d="M920.85 700.24L931.07 731.69C938.15 720.63 947.93 711.46 959.47 705.1L927.41 693.83C923.42 692.43 919.55 696.2 920.85 700.23V700.24Z" fill="#FF8D8D"/>
<path d="M930.77 734.01L919.9 700.55C919.18 698.32 919.77 695.93 921.44 694.29C923.11 692.66 925.53 692.12 927.73 692.9L961.9 704.91L959.94 705.99C948.59 712.24 938.89 721.32 931.9 732.24L930.76 734.02L930.77 734.01ZM921.8 699.93L931.38 729.4C938.03 719.59 946.85 711.32 957.07 705.32L927.08 694.78C925.57 694.25 923.99 694.6 922.85 695.72C921.71 696.84 921.32 698.41 921.81 699.93H921.8Z" fill="black"/>
<path d="M952.95 796.97C949.04 796.97 945.86 793.79 945.86 789.88C945.86 785.97 949.04 782.79 952.95 782.79C956.86 782.79 960.04 785.97 960.04 789.88C960.04 793.79 956.86 796.97 952.95 796.97ZM952.95 783.78C949.59 783.78 946.86 786.51 946.86 789.87C946.86 793.23 949.59 795.96 952.95 795.96C956.31 795.96 959.04 793.23 959.04 789.87C959.04 786.51 956.31 783.78 952.95 783.78Z" fill="black"/>
<path d="M929.61 796.97C925.7 796.97 922.52 793.79 922.52 789.88C922.52 785.97 925.7 782.79 929.61 782.79C933.52 782.79 936.7 785.97 936.7 789.88C936.7 793.79 933.52 796.97 929.61 796.97ZM929.61 783.78C926.25 783.78 923.52 786.51 923.52 789.87C923.52 793.23 926.25 795.96 929.61 795.96C932.97 795.96 935.7 793.23 935.7 789.87C935.7 786.51 932.97 783.78 929.61 783.78Z" fill="black"/>
<path d="M1078.72 853.25L1080.04 869.28C1080.36 873.2 1083.64 876.23 1087.58 876.23H1104.73C1108.67 876.23 1111.95 873.21 1112.27 869.28L1114.83 838.17C1110.03 841.8 1104.8 844.9 1099.22 847.36C1092.8 850.21 1085.92 852.21 1078.72 853.24V853.25Z" fill="#FF8D8D"/>
<path d="M1104.73 877.23H1087.58C1083.16 877.23 1079.41 873.77 1079.04 869.36L1077.64 852.39L1078.57 852.26C1085.4 851.28 1092.07 849.39 1098.4 846.63L1098.81 846.45C1104.26 844.04 1109.45 840.99 1114.22 837.37L1116 836.02L1113.26 869.36C1112.9 873.77 1109.15 877.23 1104.72 877.23H1104.73ZM1079.79 854.1L1081.03 869.2C1081.31 872.58 1084.18 875.23 1087.57 875.23H1104.72C1108.11 875.23 1110.98 872.58 1111.26 869.2L1113.64 840.28C1109.42 843.29 1104.91 845.89 1100.21 848.02L1099.61 848.29C1093.28 851.09 1086.61 853.04 1079.78 854.11L1079.79 854.1Z" fill="black"/>
<path d="M1063.94 854.06L1065.19 869.28C1065.51 873.2 1068.79 876.23 1072.73 876.23H1087.58C1083.64 876.23 1080.36 873.21 1080.04 869.28L1078.72 853.25C1075.03 853.79 1071.27 854.06 1067.43 854.06H1063.94Z" fill="#FF8D8D"/>
<path d="M1087.58 877.23H1072.73C1068.31 877.23 1064.56 873.77 1064.19 869.36L1062.85 853.06H1067.43C1071.18 853.06 1074.93 852.79 1078.58 852.26L1079.63 852.11L1081.04 869.2C1081.32 872.58 1084.19 875.23 1087.58 875.23V877.23ZM1065.02 855.06L1066.18 869.2C1066.46 872.58 1069.33 875.23 1072.72 875.23H1082.1C1080.39 873.8 1079.23 871.72 1079.04 869.36L1077.81 854.38C1074.4 854.83 1070.91 855.05 1067.43 855.05H1065.02V855.06Z" fill="black"/>
<path d="M918.76 771.06C919.97 770.83 921.21 770.71 922.49 770.71H960.08C965.62 770.71 970.64 772.96 974.28 776.59C977.91 780.22 980.16 785.24 980.16 790.79C980.16 801.88 971.17 810.87 960.08 810.87H922.49C916.94 810.87 911.93 808.62 908.29 804.99C904.66 801.36 902.41 796.34 902.41 790.79C902.41 780.98 909.45 772.81 918.76 771.06ZM952.95 796.47C956.59 796.47 959.54 793.52 959.54 789.88C959.54 786.24 956.59 783.29 952.95 783.29C949.31 783.29 946.36 786.24 946.36 789.88C946.36 793.52 949.31 796.47 952.95 796.47ZM929.61 796.47C933.25 796.47 936.2 793.52 936.2 789.88C936.2 786.24 933.25 783.29 929.61 783.29C925.97 783.29 923.02 786.24 923.02 789.88C923.02 793.52 925.97 796.47 929.61 796.47Z" fill="#FF8D8D"/>
<path d="M960.08 811.87H922.49C916.86 811.87 911.57 809.68 907.59 805.7C903.61 801.72 901.42 796.43 901.42 790.8C901.42 780.66 908.64 771.95 918.58 770.09C919.85 769.85 921.17 769.73 922.49 769.73H960.08C965.71 769.73 971 771.92 974.98 775.9C978.96 779.88 981.15 785.17 981.15 790.8C981.15 802.42 971.69 811.88 960.07 811.88L960.08 811.87ZM922.49 771.72C921.29 771.72 920.1 771.83 918.95 772.05C909.95 773.74 903.42 781.62 903.42 790.8C903.42 795.9 905.4 800.69 909.01 804.29C912.61 807.89 917.4 809.88 922.5 809.88H960.09C970.61 809.88 979.17 801.32 979.17 790.8C979.17 785.7 977.19 780.91 973.58 777.31C969.98 773.71 965.19 771.72 960.09 771.72H922.5H922.49ZM952.96 797.48C948.78 797.48 945.37 794.07 945.37 789.89C945.37 785.71 948.77 782.3 952.96 782.3C957.15 782.3 960.55 785.71 960.55 789.89C960.55 794.07 957.14 797.48 952.96 797.48ZM952.96 784.29C949.88 784.29 947.37 786.8 947.37 789.88C947.37 792.96 949.88 795.47 952.96 795.47C956.04 795.47 958.55 792.96 958.55 789.88C958.55 786.8 956.04 784.29 952.96 784.29ZM929.62 797.48C925.43 797.48 922.03 794.07 922.03 789.89C922.03 785.71 925.44 782.3 929.62 782.3C933.8 782.3 937.21 785.71 937.21 789.89C937.21 794.07 933.8 797.48 929.62 797.48ZM929.62 784.29C926.54 784.29 924.03 786.8 924.03 789.88C924.03 792.96 926.54 795.47 929.62 795.47C932.7 795.47 935.21 792.96 935.21 789.88C935.21 786.8 932.7 784.29 929.62 784.29Z" fill="black"/>
<path d="M952.95 796.97C949.04 796.97 945.86 793.79 945.86 789.88C945.86 785.97 949.04 782.79 952.95 782.79C956.86 782.79 960.04 785.97 960.04 789.88C960.04 793.79 956.86 796.97 952.95 796.97ZM952.95 783.78C949.59 783.78 946.86 786.51 946.86 789.87C946.86 793.23 949.59 795.96 952.95 795.96C956.31 795.96 959.04 793.23 959.04 789.87C959.04 786.51 956.31 783.78 952.95 783.78Z" fill="black"/>
<path d="M929.61 796.97C925.7 796.97 922.52 793.79 922.52 789.88C922.52 785.97 925.7 782.79 929.61 782.79C933.52 782.79 936.7 785.97 936.7 789.88C936.7 793.79 933.52 796.97 929.61 796.97ZM929.61 783.78C926.25 783.78 923.52 786.51 923.52 789.87C923.52 793.23 926.25 795.96 929.61 795.96C932.97 795.96 935.7 793.23 935.7 789.87C935.7 786.51 932.97 783.78 929.61 783.78Z" fill="black"/>
<path d="M952.95 797.47C948.77 797.47 945.36 794.06 945.36 789.88C945.36 785.7 948.76 782.29 952.95 782.29C957.14 782.29 960.54 785.7 960.54 789.88C960.54 794.06 957.13 797.47 952.95 797.47ZM952.95 784.28C949.87 784.28 947.36 786.79 947.36 789.87C947.36 792.95 949.87 795.46 952.95 795.46C956.03 795.46 958.54 792.95 958.54 789.87C958.54 786.79 956.03 784.28 952.95 784.28Z" fill="black"/>
<path d="M929.61 797.47C925.42 797.47 922.02 794.06 922.02 789.88C922.02 785.7 925.43 782.29 929.61 782.29C933.79 782.29 937.2 785.7 937.2 789.88C937.2 794.06 933.79 797.47 929.61 797.47ZM929.61 784.28C926.53 784.28 924.02 786.79 924.02 789.87C924.02 792.95 926.53 795.46 929.61 795.46C932.69 795.46 935.2 792.95 935.2 789.87C935.2 786.79 932.69 784.28 929.61 784.28Z" fill="black"/>
<path d="M956.45 754.4C954.12 754.4 952.36 751.14 952.36 746.81C952.36 742.48 954.12 739.22 956.45 739.22C958.78 739.22 960.54 742.48 960.54 746.81C960.54 751.14 958.78 754.4 956.45 754.4ZM956.45 741.21C955.62 741.21 954.36 743.44 954.36 746.8C954.36 750.16 955.62 752.39 956.45 752.39C957.28 752.39 958.54 750.16 958.54 746.8C958.54 743.44 957.28 741.21 956.45 741.21Z" fill="black"/>
<path d="M945.5 754.4C943.17 754.4 941.41 751.14 941.41 746.81C941.41 742.48 943.17 739.22 945.5 739.22C947.83 739.22 949.59 742.48 949.59 746.81C949.59 751.14 947.83 754.4 945.5 754.4ZM945.5 741.21C944.67 741.21 943.41 743.44 943.41 746.8C943.41 750.16 944.67 752.39 945.5 752.39C946.33 752.39 947.59 750.16 947.59 746.8C947.59 743.44 946.33 741.21 945.5 741.21Z" fill="black"/>
<path d="M975.49 850.98L977 869.28C977.33 873.2 980.6 876.23 984.54 876.23H1001.69C1005.63 876.23 1008.91 873.21 1009.23 869.28L1010.48 854.06H997.35C989.77 854.06 982.43 852.99 975.49 850.98Z" fill="#FF8D8D"/>
<path d="M1001.69 877.23H984.54C980.12 877.23 976.37 873.78 976 869.37L974.38 849.63L975.77 850.03C982.75 852.05 990.01 853.07 997.35 853.07H1011.57L1010.23 869.37C1009.87 873.78 1006.12 877.24 1001.69 877.24V877.23ZM976.6 852.33L977.99 869.2C978.27 872.58 981.15 875.23 984.54 875.23H1001.69C1005.08 875.23 1007.96 872.58 1008.23 869.2L1009.39 855.06H997.34C990.3 855.06 983.33 854.14 976.59 852.33H976.6Z" fill="black"/>
<path d="M962.11 845.74L964.05 869.28C964.37 873.2 967.65 876.23 971.59 876.23H984.55C980.61 876.23 977.33 873.21 977.01 869.28L975.5 850.98C970.85 849.64 966.37 847.87 962.12 845.74H962.11Z" fill="#FF8D8D"/>
<path d="M984.54 877.23H971.58C967.16 877.23 963.41 873.77 963.04 869.36L960.96 844.04L962.55 844.84C966.78 846.97 971.23 848.71 975.76 850.01L976.48 850.22V850.97L977.98 869.19C978.26 872.57 981.14 875.22 984.53 875.22V877.22L984.54 877.23ZM963.25 847.41L965.04 869.2C965.32 872.58 968.19 875.23 971.58 875.23H979.06C977.35 873.8 976.19 871.72 975.99 869.37L974.54 851.75C970.68 850.6 966.89 849.15 963.24 847.41H963.25Z" fill="black"/>
<path d="M1143.81 756.29V754.29C1151.88 754.29 1157.4 751.82 1159.8 747.24C1157.77 747.09 1155.75 746.47 1153.77 745.38C1145.37 740.78 1143.43 734.33 1145.22 729.99C1146.71 726.38 1150.54 724.66 1154.53 725.82C1160.11 727.44 1163.91 737.17 1162.98 743.71C1162.92 744.15 1162.83 744.63 1162.71 745.12C1163.2 745.04 1163.7 744.92 1164.19 744.78C1172.4 742.34 1178.09 731.87 1178.14 731.77L1179.9 732.71C1179.65 733.17 1173.78 744.01 1164.76 746.7C1163.84 746.97 1162.93 747.15 1162.01 747.24C1160.2 751.56 1155.54 756.31 1143.8 756.31L1143.81 756.29ZM1152.06 727.45C1149.83 727.45 1147.94 728.65 1147.07 730.75C1145.62 734.27 1147.42 739.62 1154.73 743.63C1156.66 744.69 1158.62 745.24 1160.59 745.28C1160.77 744.69 1160.9 744.08 1160.99 743.43C1162.02 736.19 1157.47 728.75 1153.97 727.74C1153.32 727.55 1152.67 727.46 1152.06 727.46V727.45Z" fill="black"/>
<path d="M1084.85 704.64C1084.85 707.57 1082.48 709.95 1079.55 709.95H1023.33C1021.87 709.95 1020.54 709.35 1019.58 708.39C1018.62 707.43 1018.03 706.11 1018.03 704.64C1018.03 702.29 1019.55 700.31 1021.66 699.61C1022.19 699.43 1022.75 699.34 1023.33 699.34H1079.55C1080.13 699.34 1080.69 699.43 1081.22 699.61C1082.01 699.87 1082.72 700.31 1083.3 700.89C1084.26 701.85 1084.85 703.17 1084.85 704.64Z" fill="black"/>
<path d="M1079.55 710.95H1023.33C1021.65 710.95 1020.07 710.29 1018.87 709.1C1017.68 707.91 1017.03 706.33 1017.03 704.64C1017.03 701.92 1018.76 699.52 1021.34 698.66C1021.97 698.45 1022.64 698.34 1023.32 698.34H1079.54C1080.23 698.34 1080.9 698.45 1081.53 698.66C1082.45 698.96 1083.31 699.49 1084 700.18C1085.19 701.37 1085.84 702.95 1085.84 704.64C1085.84 708.12 1083.01 710.95 1079.54 710.95H1079.55ZM1023.33 700.34C1022.86 700.34 1022.41 700.41 1021.98 700.56C1020.21 701.15 1019.03 702.79 1019.03 704.64C1019.03 705.79 1019.48 706.87 1020.29 707.68C1021.11 708.5 1022.19 708.95 1023.33 708.95H1079.55C1081.92 708.95 1083.85 707.02 1083.85 704.64C1083.85 703.49 1083.4 702.41 1082.59 701.6C1082.12 701.13 1081.54 700.77 1080.9 700.56C1080.47 700.41 1080.01 700.34 1079.54 700.34H1023.32H1023.33Z" fill="black"/>
<path d="M1083.57 687.55C1083.57 691.82 1082.74 695.89 1081.22 699.61C1079.66 703.49 1077.35 707 1074.47 709.95H1028.41C1025.54 707 1023.23 703.49 1021.66 699.61C1020.14 695.89 1019.31 691.82 1019.31 687.55C1019.31 669.8 1033.69 655.41 1051.44 655.41C1069.19 655.41 1083.57 669.8 1083.57 687.55Z" fill="#FFB019"/>
<path d="M1074.89 710.95H1027.99L1027.7 710.65C1024.69 707.56 1022.35 703.97 1020.74 699.99C1019.13 696.06 1018.32 691.87 1018.32 687.56C1018.32 669.29 1033.18 654.42 1051.45 654.42C1069.72 654.42 1084.58 669.29 1084.58 687.56C1084.58 691.88 1083.76 696.06 1082.16 700C1080.56 703.98 1078.22 707.57 1075.2 710.66L1074.91 710.96L1074.89 710.95ZM1028.83 708.95H1074.04C1076.73 706.12 1078.83 702.85 1080.29 699.24C1081.8 695.54 1082.57 691.61 1082.57 687.55C1082.57 670.38 1068.61 656.41 1051.44 656.41C1034.27 656.41 1020.31 670.38 1020.31 687.55C1020.31 691.61 1021.08 695.54 1022.59 699.23C1024.05 702.85 1026.16 706.11 1028.84 708.95H1028.83Z" fill="black"/>
<path d="M1075.48 687.55C1075.48 691.84 1074.36 695.86 1072.39 699.34C1069.68 704.15 1065.37 707.93 1060.17 709.95H1042.71C1037.51 707.93 1033.19 704.15 1030.48 699.34C1028.51 695.86 1027.39 691.84 1027.39 687.55C1027.39 674.27 1038.16 663.5 1051.44 663.5C1064.72 663.5 1075.48 674.27 1075.48 687.55Z" fill="#FFB019"/>
<path d="M1060.36 710.95H1042.53L1042.36 710.88C1036.98 708.79 1032.46 704.87 1029.62 699.83C1027.51 696.11 1026.4 691.86 1026.4 687.55C1026.4 673.74 1037.64 662.5 1051.45 662.5C1065.26 662.5 1076.49 673.74 1076.49 687.55C1076.49 691.86 1075.38 696.11 1073.27 699.83C1070.43 704.87 1065.91 708.79 1060.54 710.88L1060.37 710.95H1060.36ZM1042.9 708.95H1059.98C1064.84 707.02 1068.94 703.43 1071.52 698.85C1073.46 695.43 1074.48 691.52 1074.48 687.55C1074.48 674.84 1064.14 664.5 1051.44 664.5C1038.74 664.5 1028.39 674.84 1028.39 687.55C1028.39 691.52 1029.41 695.43 1031.35 698.85C1033.93 703.43 1038.03 707.02 1042.9 708.95Z" fill="black"/>
<path d="M1010.13 644.96C1027.87 644.96 1042.26 630.575 1042.26 612.83C1042.26 595.085 1027.87 580.7 1010.13 580.7C992.385 580.7 978 595.085 978 612.83C978 630.575 992.385 644.96 1010.13 644.96Z" fill="#FFB019"/>
<path d="M1010.13 645.96C991.86 645.96 977 631.1 977 612.83C977 594.56 991.86 579.7 1010.13 579.7C1028.4 579.7 1043.26 594.56 1043.26 612.83C1043.26 631.1 1028.4 645.96 1010.13 645.96ZM1010.13 581.69C992.96 581.69 979 595.66 979 612.82C979 629.98 992.97 643.95 1010.13 643.95C1027.29 643.95 1041.26 629.98 1041.26 612.82C1041.26 595.66 1027.29 581.69 1010.13 581.69Z" fill="black"/>
<path d="M1010.13 636.88C1023.41 636.88 1034.18 626.112 1034.18 612.83C1034.18 599.548 1023.41 588.78 1010.13 588.78C996.848 588.78 986.08 599.548 986.08 612.83C986.08 626.112 996.848 636.88 1010.13 636.88Z" fill="#FFB019"/>
<path d="M1010.13 637.87C996.32 637.87 985.08 626.63 985.08 612.82C985.08 599.01 996.32 587.77 1010.13 587.77C1023.94 587.77 1035.18 599.01 1035.18 612.82C1035.18 626.63 1023.94 637.87 1010.13 637.87ZM1010.13 589.78C997.42 589.78 987.08 600.12 987.08 612.83C987.08 625.54 997.42 635.88 1010.13 635.88C1022.84 635.88 1033.18 625.54 1033.18 612.83C1033.18 600.12 1022.84 589.78 1010.13 589.78Z" fill="black"/>
<path d="M752 456.3C755.408 456.3 758.17 453.538 758.17 450.13C758.17 446.722 755.408 443.96 752 443.96C748.592 443.96 745.83 446.722 745.83 450.13C745.83 453.538 748.592 456.3 752 456.3Z" fill="white"/>
<path d="M752 457.05C748.19 457.05 745.08 453.95 745.08 450.13C745.08 446.31 748.18 443.21 752 443.21C755.82 443.21 758.92 446.31 758.92 450.13C758.92 453.95 755.82 457.05 752 457.05ZM752 444.72C749.01 444.72 746.58 447.15 746.58 450.14C746.58 453.13 749.01 455.56 752 455.56C754.99 455.56 757.42 453.13 757.42 450.14C757.42 447.15 754.99 444.72 752 444.72Z" fill="black"/>
<path d="M163.03 727.91C166.437 727.91 169.2 725.148 169.2 721.74C169.2 718.332 166.437 715.57 163.03 715.57C159.622 715.57 156.86 718.332 156.86 721.74C156.86 725.148 159.622 727.91 163.03 727.91Z" fill="white"/>
<path d="M163.03 728.65C159.22 728.65 156.11 725.55 156.11 721.73C156.11 717.91 159.21 714.81 163.03 714.81C166.85 714.81 169.95 717.91 169.95 721.73C169.95 725.55 166.85 728.65 163.03 728.65ZM163.03 716.32C160.04 716.32 157.61 718.75 157.61 721.74C157.61 724.73 160.04 727.16 163.03 727.16C166.02 727.16 168.45 724.73 168.45 721.74C168.45 718.75 166.02 716.32 163.03 716.32Z" fill="black"/>
<path d="M628.71 867.15C632.118 867.15 634.88 864.388 634.88 860.98C634.88 857.572 632.118 854.81 628.71 854.81C625.302 854.81 622.54 857.572 622.54 860.98C622.54 864.388 625.302 867.15 628.71 867.15Z" fill="white"/>
<path d="M628.71 867.9C624.9 867.9 621.79 864.8 621.79 860.98C621.79 857.16 624.89 854.06 628.71 854.06C632.53 854.06 635.63 857.16 635.63 860.98C635.63 864.8 632.53 867.9 628.71 867.9ZM628.71 855.57C625.72 855.57 623.29 858 623.29 860.99C623.29 863.98 625.72 866.41 628.71 866.41C631.7 866.41 634.13 863.98 634.13 860.99C634.13 858 631.7 855.57 628.71 855.57Z" fill="black"/>
<path d="M822.52 849.93C821.97 849.93 821.52 849.48 821.52 848.93V837.17C821.52 836.62 821.97 836.17 822.52 836.17C823.07 836.17 823.52 836.62 823.52 837.17V848.93C823.52 849.48 823.07 849.93 822.52 849.93Z" fill="#222222"/>
<path d="M828.4 844.05H816.64C816.09 844.05 815.64 843.6 815.64 843.05C815.64 842.5 816.09 842.05 816.64 842.05H828.4C828.95 842.05 829.4 842.5 829.4 843.05C829.4 843.6 828.95 844.05 828.4 844.05Z" fill="#222222"/>
<path d="M1132.53 557.89C1131.98 557.89 1131.53 557.44 1131.53 556.89V545.13C1131.53 544.58 1131.98 544.13 1132.53 544.13C1133.08 544.13 1133.53 544.58 1133.53 545.13V556.89C1133.53 557.44 1133.08 557.89 1132.53 557.89Z" fill="#222222"/>
<path d="M1138.41 552.01H1126.65C1126.1 552.01 1125.65 551.56 1125.65 551.01C1125.65 550.46 1126.1 550.01 1126.65 550.01H1138.41C1138.96 550.01 1139.41 550.46 1139.41 551.01C1139.41 551.56 1138.96 552.01 1138.41 552.01Z" fill="#222222"/>
<path d="M361.03 282.55C360.48 282.55 360.03 282.1 360.03 281.55V269.79C360.03 269.24 360.48 268.79 361.03 268.79C361.58 268.79 362.03 269.24 362.03 269.79V281.55C362.03 282.1 361.58 282.55 361.03 282.55Z" fill="#222222"/>
<path d="M366.91 276.67H355.15C354.6 276.67 354.15 276.22 354.15 275.67C354.15 275.12 354.6 274.67 355.15 274.67H366.91C367.46 274.67 367.91 275.12 367.91 275.67C367.91 276.22 367.46 276.67 366.91 276.67Z" fill="#222222"/>
<path d="M460.78 721.73H663.14V703.47H460.78V721.73Z" fill="#3CB2FF"/>
<path d="M664.14 722.74H459.78V702.48H664.14V722.74ZM461.78 720.74H662.14V704.48H461.78V720.74Z" fill="black"/>
<path d="M597.08 721.74H833.5L894.58 529.94H658.17L597.08 721.74Z" fill="#3CB2FF"/>
<path d="M834.23 722.74H595.71L657.43 528.94H895.95L834.23 722.74ZM598.45 720.74H832.77L893.22 530.94H658.9L598.45 720.74Z" fill="black"/>
<path d="M748.92 647.84C761.125 647.84 771.02 637.945 771.02 625.74C771.02 613.534 761.125 603.64 748.92 603.64C736.714 603.64 726.82 613.534 726.82 625.74C726.82 637.945 736.714 647.84 748.92 647.84Z" fill="#B1E0FF"/>
<path d="M748.92 648.84C736.18 648.84 725.82 638.48 725.82 625.74C725.82 613 736.18 602.64 748.92 602.64C761.66 602.64 772.02 613 772.02 625.74C772.02 638.48 761.66 648.84 748.92 648.84ZM748.92 604.64C737.29 604.64 727.82 614.1 727.82 625.74C727.82 637.38 737.28 646.84 748.92 646.84C760.56 646.84 770.02 637.38 770.02 625.74C770.02 614.1 760.56 604.64 748.92 604.64Z" fill="black"/>
<path d="M1034.26 281.22H972.08C967.899 281.22 964.51 284.609 964.51 288.79C964.51 292.971 967.899 296.36 972.08 296.36H1034.26C1038.44 296.36 1041.83 292.971 1041.83 288.79C1041.83 284.609 1038.44 281.22 1034.26 281.22Z" fill="white"/>
<path d="M1034.26 297.36H972.08C967.35 297.36 963.51 293.52 963.51 288.79C963.51 284.06 967.35 280.22 972.08 280.22H1034.26C1038.99 280.22 1042.83 284.06 1042.83 288.79C1042.83 293.52 1038.99 297.36 1034.26 297.36ZM972.08 282.22C968.46 282.22 965.51 285.17 965.51 288.79C965.51 292.41 968.46 295.36 972.08 295.36H1034.26C1037.88 295.36 1040.83 292.41 1040.83 288.79C1040.83 285.17 1037.88 282.22 1034.26 282.22H972.08Z" fill="black"/>
<path d="M1051.84 304.87H976.69C969.963 304.87 964.51 310.323 964.51 317.05V317.06C964.51 323.787 969.963 329.24 976.69 329.24H1051.84C1058.57 329.24 1064.02 323.787 1064.02 317.06V317.05C1064.02 310.323 1058.57 304.87 1051.84 304.87Z" fill="#E7F9F9"/>
<path d="M1051.84 330.24H976.69C969.42 330.24 963.51 324.33 963.51 317.06C963.51 309.79 969.42 303.88 976.69 303.88H1051.84C1059.11 303.88 1065.02 309.79 1065.02 317.06C1065.02 324.33 1059.11 330.24 1051.84 330.24ZM976.69 305.87C970.52 305.87 965.51 310.89 965.51 317.05C965.51 323.21 970.53 328.23 976.69 328.23H1051.84C1058.01 328.23 1063.02 323.21 1063.02 317.05C1063.02 310.89 1058 305.87 1051.84 305.87H976.69Z" fill="black"/>
</g>
<defs>
<clipPath id="clip0_935_55450">
<rect width="1350" height="1080" fill="white"/>
</clipPath>
</defs>
</svg>
